<?xml version="1.0" encoding="UTF-8"?>
<svg xmlns="http://www.w3.org/2000/svg" version="1.1" viewBox="0 0 830.3 212.6">
  <defs>
    <style>
      .cls-1 {
        font-family: QTypeSquareBook, QType;
        font-size: 51.7px;
        letter-spacing: .1em;
      }

      .cls-1, .cls-2 {
        fill: #272361;
      }

      .cls-3 {
        display: none;
      }

      .cls-4 {
        font-family: QanelasSoft-ExtraBold, 'Qanelas Soft';
        font-size: 75px;
        font-weight: 700;
      }

      .cls-4, .cls-5 {
        fill: #e56139;
      }
    </style>
  </defs>
  <!-- Generator: Adobe Illustrator 28.6.0, SVG Export Plug-In . SVG Version: 1.2.0 Build 709)  -->
  <g>
    <g id="Layer_1">
      <g class="cls-3">
        <g>
          <polygon class="cls-5" points="33.5 103.1 44.6 109.5 55.8 115.9 66.9 122.4 78.1 128.8 89.3 135.3 89.3 109.5 78.1 103.1 66.9 96.6 55.8 90.2 44.6 83.7 33.5 77.3 22.3 70.9 22.3 70.9 11.2 64.5 0 58 0 161.1 22.3 174 33.5 180.4 44.6 186.8 55.8 193.3 66.9 199.7 78.1 206.2 89.3 212.6 89.3 186.8 78.1 180.4 66.9 174 55.8 167.5 44.6 161.1 33.5 154.6 22.3 148.2 22.3 96.6 33.5 103.1"/>
          <path class="cls-2" d="M171.1,45.1l-11.2-6.4-11.2-6.4-11.2-6.4-11.2-6.4-11.2-6.4-11.2-6.4-11.2-6.4-11.2,6.4-11.2,6.4-11.2,6.4-11.2,6.4-11.2,6.4-11.2,6.4-11.2,6.4-11.2,6.4,23,13.3,21.6-13.3,14.7-8.5,15.1,8.7,17.1,9.9,12.4,7.1,22.1,13,7.8-4.5,11.2-6.4,11.2-6.4,22.3-12.9-11.2-6.4ZM124.7,59l-44.6-25.8,13-7.5,44.6,25.8-13,7.5Z"/>
          <polygon class="cls-2" points="130.2 168.1 141.4 161.7 148.6 157.5 130.2 168.1"/>
          <path class="cls-5" d="M174.8,64.5l-11.2,6.4-11.2,6.4-11.2,6.4-11.2,6.4h0s-11.2,6.4-11.2,6.4l-11.2,6.4-11.2,6.4v103l11.2-6.4,11.2-6.4,11.2-6.4,18.4-10.6,15-8.7h0l22.3-12.9v-25.1h0V58l-11.2,6.4ZM141.4,109.6l11.2-6.4,11.5-6.6.3,18.3-45.3,25v-17.4l22.3-12.9ZM119.1,174v-16.2l6.8-3.8,13.2-7.4,10.7-6.1h0l14.8-8.3.3,15.9-45.8,26Z"/>
        </g>
        <g>
          <text class="cls-4" transform="translate(206.5 104.7)"><tspan x="0" y="0">CUSTOMIZED BOX</tspan></text>
          <text class="cls-1" transform="translate(281.4 157.8)"><tspan x="0" y="0">PACKAGING</tspan></text>
        </g>
      </g>
      <g>
        <g>
          <polygon class="cls-5" points="37.5 103.1 48.7 109.5 59.8 115.9 71 122.4 82.2 128.8 93.3 135.3 93.3 109.5 82.2 103.1 71 96.6 59.8 90.2 48.7 83.7 37.5 77.3 26.4 70.9 26.4 70.9 15.2 64.5 4.1 58 4.1 161.1 26.4 174 37.5 180.4 48.7 186.8 59.8 193.3 71 199.7 82.2 206.2 93.3 212.6 93.3 186.8 82.2 180.4 71 174 59.8 167.5 48.7 161.1 37.5 154.6 26.4 148.2 26.4 96.6 37.5 103.1"/>
          <path class="cls-2" d="M175.2,45.1l-11.2-6.4-11.2-6.4-11.2-6.4-11.2-6.4-11.2-6.4-11.2-6.4-11.2-6.4-11.2,6.4-11.2,6.4-11.2,6.4-11.2,6.4-11.2,6.4-11.2,6.4-11.2,6.4-11.2,6.4,23,13.3,21.6-13.3,14.7-8.5,15.1,8.7,17.1,9.9,12.4,7.1,22.1,13,7.8-4.5,11.2-6.4,11.2-6.4,22.3-12.9-11.2-6.4ZM128.7,59l-44.6-25.8,13-7.5,44.6,25.8-13,7.5Z"/>
          <polygon class="cls-2" points="134.3 168.1 145.4 161.7 152.7 157.5 134.3 168.1"/>
          <path class="cls-5" d="M178.9,64.5l-11.2,6.4-11.2,6.4-11.2,6.4-11.2,6.4h0s-11.2,6.4-11.2,6.4l-11.2,6.4-11.2,6.4v103l11.2-6.4,11.2-6.4,11.2-6.4,18.4-10.6,15-8.7h0l22.3-12.9v-25.1h0V58l-11.2,6.4ZM145.4,109.6l11.2-6.4,11.5-6.6.3,18.3-45.3,25v-17.4l22.3-12.9ZM123.1,174v-16.2l6.8-3.8,13.2-7.4,10.7-6.1h0l14.8-8.3.3,15.9-45.8,26Z"/>
        </g>
        <g>
          <g>
            <path class="cls-5" d="M206.4,80.3c0-15.4,11.5-27.3,27.3-27.3s22.2,7.5,25.3,18.4c.3,1.3-.4,2.1-1.6,2.1h-8.8c-1,0-1.6-.5-2.1-1.5-2.1-4.6-7-7.3-12.7-7.3-9.3,0-15.3,6.2-15.3,15.6s6,15.6,15.3,15.6,10.6-2.8,12.7-7.3c.5-1,1.1-1.5,2.1-1.5h8.8c1.3,0,1.9.8,1.6,2-2.9,10.9-13.2,18.6-25.3,18.6s-27.3-11.8-27.3-27.3Z"/>
            <path class="cls-5" d="M263.9,90.3v-34.4c0-1.2.7-1.9,1.9-1.9h8.2c1.2,0,1.9.7,1.9,1.9v33.4c0,4,1.9,6.6,7.5,6.6s7.5-2.6,7.5-6.6v-33.4c0-1.2.7-1.9,1.9-1.9h8.2c1.2,0,1.9.7,1.9,1.9v34.4c0,11.2-8.7,17.2-19.5,17.2s-19.5-6-19.5-17.2Z"/>
            <path class="cls-5" d="M308.2,92c0-1.3.7-1.9,1.9-1.9h8.2c1.1,0,1.7.6,1.9,1.8.6,2.7,2.9,4,7.3,4s6.4-1.9,6.4-4-3.8-4.4-8.3-6c-7.4-2.5-16.8-5.6-16.8-17.1s8.5-15.7,17.5-15.7,17.2,4.7,18.1,15.6c0,1.3-.7,2-1.9,2h-8.2c-1.1,0-1.7-.6-1.9-1.8-.6-2.8-2.6-4-6-4s-5.5,1.9-5.5,4c0,3.2,3.1,4.7,7.4,6.2,7.5,2.6,17.7,5.3,17.7,16.9s-8.4,15.7-18.4,15.7-18.4-4.7-19.3-15.6Z"/>
            <path class="cls-5" d="M382.8,55.9v7.8c0,1.2-.7,1.9-1.9,1.9h-10.1v39.1c0,1.2-.7,1.9-1.9,1.9h-8.2c-1.2,0-1.9-.7-1.9-1.9v-39.1h-10.1c-1.2,0-1.9-.7-1.9-1.9v-7.8c0-1.2.7-1.9,1.9-1.9h32.2c1.2,0,1.9.7,1.9,1.9Z"/>
            <path class="cls-5" d="M382.8,80.3c0-15.4,12.2-27.3,27.3-27.3s27.3,11.8,27.3,27.3-12.2,27.3-27.3,27.3-27.3-11.8-27.3-27.3ZM425.4,80.3c0-9.4-6.8-15.6-15.3-15.6s-15.3,6.2-15.3,15.6,6.8,15.6,15.3,15.6,15.3-6.2,15.3-15.6Z"/>
            <path class="cls-5" d="M496.6,55.9v48.7c0,1.2-.7,1.9-1.9,1.9h-8.2c-1.2,0-1.9-.7-1.9-1.9v-30.3l-9.5,22.6c-.4,1-1.1,1.4-2.2,1.4h-5.1c-1.1,0-1.8-.5-2.2-1.4l-9.5-22.6v30.3c0,1.2-.7,1.9-1.9,1.9h-8.2c-1.2,0-1.9-.7-1.9-1.9v-48.7c0-1.2.7-1.9,1.9-1.9h10c1,0,1.8.5,2.2,1.4l12.1,28.9,12.1-28.9c.4-1,1.1-1.4,2.2-1.4h10c1.2,0,1.9.7,1.9,1.9Z"/>
            <path class="cls-5" d="M507.5,54h8.2c1.2,0,1.9.7,1.9,1.9v48.7c0,1.2-.7,1.9-1.9,1.9h-8.2c-1.2,0-1.9-.7-1.9-1.9v-48.7c0-1.2.7-1.9,1.9-1.9Z"/>
            <path class="cls-5" d="M558.9,95c1.2,0,1.9.7,1.9,1.9v7.8c0,1.2-.7,1.9-1.9,1.9h-32.2c-1.2,0-1.9-.7-1.9-1.9v-6.1c0-.9.2-1.6.7-2.3l19.4-30.6h-17.8c-1.2,0-1.9-.7-1.9-1.9v-7.8c0-1.2.7-1.9,1.9-1.9h31.5c1.2,0,1.9.7,1.9,1.9v6.2c0,.9-.2,1.6-.7,2.3l-19.4,30.6h18.6Z"/>
            <path class="cls-5" d="M598.6,96.8v7.8c0,1.2-.7,1.9-1.9,1.9h-27.7c-1.2,0-1.9-.7-1.9-1.9v-48.7c0-1.2.7-1.9,1.9-1.9h27.4c1.2,0,1.9.7,1.9,1.9v7.8c0,1.2-.7,1.9-1.9,1.9h-17.2v8.8h15.4c1.2,0,1.9.7,1.9,1.9v7.5c0,1.2-.7,1.9-1.9,1.9h-15.4v9.4h17.6c1.2,0,1.9.7,1.9,1.9Z"/>
            <path class="cls-5" d="M653.4,80.3c0,14.8-11,26.2-25.5,26.2h-20.6c-1.2,0-1.9-.7-1.9-1.9v-48.7c0-1.2.7-1.9,1.9-1.9h20.6c14.5,0,25.5,11.4,25.5,26.2ZM641.8,80.3c0-9-5.7-14.7-13.9-14.7h-10.5v29.4h10.5c8.2,0,13.9-5.7,13.9-14.7Z"/>
            <path class="cls-5" d="M723.9,90c0,9.4-7,16.5-16.6,16.5h-26.5c-1.2,0-1.9-.7-1.9-1.9v-48.7c0-1.2.7-1.9,1.9-1.9h20.2c9.2,0,16.1,6.2,16.1,14.6s-.7,4.5-1.9,6.4c5.3,2.9,8.7,8.3,8.7,15ZM690.9,65.3v7.5h12.8c1-.9,1.5-2.2,1.5-3.4,0-2.5-1.7-4.1-4.1-4.1h-10.1ZM711.9,89.3c0-3.4-1.7-6-6-6h-15v12h14.9c4.3,0,6.1-2.6,6.1-6Z"/>
            <path class="cls-5" d="M727.6,80.3c0-15.4,12.2-27.3,27.3-27.3s27.3,11.8,27.3,27.3-12.2,27.3-27.3,27.3-27.3-11.8-27.3-27.3ZM770.2,80.3c0-9.4-6.8-15.6-15.3-15.6s-15.3,6.2-15.3,15.6,6.8,15.6,15.3,15.6,15.3-6.2,15.3-15.6Z"/>
            <path class="cls-5" d="M824.7,106.5h-9.6c-1,0-1.7-.4-2.2-1.3l-7.7-13.6-7.7,13.6c-.5.9-1.3,1.3-2.2,1.3h-9.6c-1.4,0-2-.9-1.3-2.2l14-24.7-13.3-23.3c-.7-1.3-.1-2.2,1.3-2.2h9.6c1,0,1.7.4,2.2,1.3l7,12.3,7-12.3c.5-.9,1.3-1.3,2.2-1.3h9.6c1.4,0,2,.9,1.3,2.2l-13.3,23.3,14,24.7c.8,1.3.1,2.2-1.3,2.2Z"/>
          </g>
          <g>
            <path class="cls-2" d="M339.2,125.2c3.8,0,6.1.7,7.9,2.5,1.8,1.7,2.4,3.9,2.4,7.9v3.5c0,3.9-.7,6.1-2.4,7.9-1.8,1.8-4.1,2.5-7.9,2.5h-18.6v10.3h-5.5v-34.5h24.1ZM337.8,144.1c3.3,0,4.2-.2,5.2-1,.7-.7,1-1.5,1-3.1v-5.5c0-1.5-.3-2.4-1-3.1-1-.9-1.9-1-5.2-1h-17.2v13.8h17.2Z"/>
            <path class="cls-2" d="M365.1,159.6h-5.8l19.1-34.6h3.8l19.1,34.6h-5.8l-5.3-9.6h-19.8l-5.3,9.6ZM380.3,132.1l-7.1,12.8h14.1l-7-12.8Z"/>
            <path class="cls-2" d="M447.9,151.4c-.8,6-3.6,8.3-10.3,8.3h-13.8c-3.8,0-6.1-.7-7.9-2.5-1.8-1.7-2.4-3.9-2.4-7.9v-13.8c0-3.9.7-6.1,2.4-7.9,1.8-1.8,4.1-2.5,7.9-2.5h13.8c6.7,0,9.6,2.3,10.3,8.3l-5.5.7c-.2-1.4-.4-2.2-1-2.8-.9-.8-1.8-1-5.2-1h-11c-3.4,0-4.3.2-5.2,1-.8.9-1,2-1,5.2v11.7c0,3.2.2,4.3,1,5.2.8.8,1.8,1,5.2,1h11c3.4,0,4.3-.2,5.2-1,.6-.6.9-1.3,1-2.8l5.5.7Z"/>
            <path class="cls-2" d="M470.2,159.6h-5.5v-34.5h5.5v14.7h4.3l13.9-14.7h7.2l-16.8,17,17.6,17.4h-7.4l-14.5-14.7h-4.3v14.7Z"/>
            <path class="cls-2" d="M509.9,159.6h-5.8l19.1-34.6h3.8l19.1,34.6h-5.8l-5.3-9.6h-19.8l-5.3,9.6ZM525.1,132.1l-7.1,12.8h14.1l-7-12.8Z"/>
            <path class="cls-2" d="M587.2,134.2c-.2-1.4-.4-2.2-1-2.8-.9-.8-1.9-1-5.2-1h-11c-3.4,0-4.3.2-5.2,1-.8.9-1,2-1,5.2v11.7c0,3.2.2,4.3,1,5.2.8.8,1.8,1,5.2,1h11c3.3,0,4.2-.2,5.2-1,.9-.8,1-1.5,1-4.8v-3.6h-11l.7-5.2h15.9v9.5c0,4.1-.7,6.2-2.4,7.9-1.8,1.7-4.1,2.4-7.9,2.4h-13.8c-3.8,0-6.1-.7-7.9-2.5-1.8-1.7-2.4-3.9-2.4-7.9v-13.7c0-4,.7-6.2,2.4-7.9,1.8-1.8,4.1-2.5,7.9-2.5h13.8c6.7,0,9.6,2.3,10.3,8.3l-5.5.7Z"/>
            <path class="cls-2" d="M615,159.6h-5.5v-34.5h5.5v34.5Z"/>
            <path class="cls-2" d="M637.5,159.6h-5.5v-34.5h5.5l23.4,18.3v-18.3h5.5v34.5h-5.5v-9.9l-23.4-18.1v28Z"/>
            <path class="cls-2" d="M712.1,134.2c-.2-1.4-.4-2.2-1-2.8-.9-.8-1.9-1-5.2-1h-11c-3.4,0-4.3.2-5.2,1-.8.9-1,2-1,5.2v11.7c0,3.2.2,4.3,1,5.2.8.8,1.8,1,5.2,1h11c3.3,0,4.2-.2,5.2-1,.9-.8,1-1.5,1-4.8v-3.6h-11l.7-5.2h15.9v9.5c0,4.1-.7,6.2-2.4,7.9-1.8,1.7-4.1,2.4-7.9,2.4h-13.8c-3.8,0-6.1-.7-7.9-2.5-1.8-1.7-2.4-3.9-2.4-7.9v-13.7c0-4,.7-6.2,2.4-7.9,1.8-1.8,4.1-2.5,7.9-2.5h13.8c6.7,0,9.6,2.3,10.3,8.3l-5.5.7Z"/>
          </g>
        </g>
      </g>
    </g>
  </g>
</svg>