<svg width="186" height="61" viewBox="0 0 186 61" fill="none" xmlns="http://www.w3.org/2000/svg">
<path d="M0.00195312 48.1923V43.296H4.47859V33.9425H0.00195312V29.0461H14.9269V33.9425H10.4502V43.296H14.9269V48.1923H0.00195312Z" fill="#EB0100"/>
<path d="M22.3595 48.1923V29.0461H27.5006L35.5434 40.0956L31.563 40.0686L39.6332 29.0461H44.7175V48.1923H38.9687V43.4604C38.9687 41.8914 39.0045 40.4473 39.0802 39.1259C39.1538 37.8046 39.3009 36.4686 39.5217 35.1182L40.1294 36.9223L34.408 44.17H32.5828L26.8614 36.839L27.5532 35.1161C27.774 36.4291 27.9212 37.7421 27.9948 39.0552C28.0683 40.3682 28.1062 41.8352 28.1062 43.4583V48.1902H22.3574L22.3595 48.1923Z" fill="#EB0100"/>
<path d="M51.7383 48.1923V29.0461H62.3506C63.7321 29.0461 64.9621 29.3291 66.0408 29.8931C67.1195 30.4591 67.9711 31.2331 68.5977 32.2174C69.2243 33.2017 69.5376 34.3337 69.5376 35.6092C69.5376 36.9764 69.2159 38.1895 68.5704 39.2466C67.9248 40.3037 67.0375 41.1381 65.9041 41.7499C64.7708 42.3617 63.486 42.6655 62.0478 42.6655H57.7078V48.1902H51.7383V48.1923ZM57.5985 37.636H60.8324C61.3119 37.636 61.7345 37.5632 62.1046 37.4175C62.4725 37.2719 62.7669 37.0534 62.9898 36.762C63.2106 36.4707 63.322 36.1232 63.322 35.7216C63.322 35.32 63.2106 35.0287 62.9898 34.7915C62.769 34.5542 62.4746 34.3774 62.1046 34.2587C61.7366 34.1401 61.3119 34.0819 60.8324 34.0819H57.5985V37.6381V37.636Z" fill="#EB0100"/>
<path d="M75.5617 48.1923V29.0461H92.1709V33.8322H81.281V43.4042H92.6671V48.1902H75.5596L75.5617 48.1923ZM78.5748 40.7532V36.2668H91.149V40.7532H78.5748Z" fill="#EB0100"/>
<path d="M98.8057 48.1923V29.0461H109.031C110.652 29.0461 112.03 29.2979 113.163 29.7973C114.296 30.2988 115.156 31.0147 115.747 31.9448C116.336 32.875 116.632 33.9778 116.632 35.2534C116.632 36.529 116.315 37.7234 115.68 38.7264C115.045 39.7294 114.174 40.5097 113.068 41.0653C111.962 41.6209 110.701 41.8997 109.281 41.8997H104.39V48.1902H98.8078L98.8057 48.1923ZM104.388 37.8004H108.451C108.911 37.8004 109.307 37.7192 109.639 37.5549C109.971 37.3905 110.238 37.1532 110.44 36.8432C110.642 36.5331 110.745 36.1503 110.745 35.6946C110.745 35.2388 110.644 34.8643 110.44 34.573C110.236 34.2816 109.956 34.0631 109.597 33.9175C109.237 33.7718 108.819 33.699 108.339 33.699H104.386V37.8025L104.388 37.8004ZM110.911 48.1923L105.053 39.5504L111.216 38.8658L117.627 48.1923H110.911Z" fill="#EB0100"/>
<path d="M123.624 48.1923V43.296H128.101V33.9425H123.624V29.0461H138.549V33.9425H134.072V43.296H138.549V48.1923H123.624Z" fill="#EB0100"/>
<path d="M142.97 48.1923L151.814 29.0461H156.761L165.578 48.1923H159.608L155.353 38.8929C155.132 38.4184 154.942 37.9856 154.787 37.5944C154.629 37.2032 154.492 36.8328 154.373 36.4874C154.253 36.1419 154.137 35.7861 154.028 35.4199C153.916 35.0557 153.807 34.6645 153.696 34.2442H154.774C154.663 34.6812 154.553 35.0828 154.442 35.4469C154.331 35.8111 154.207 36.1711 154.07 36.5269C153.931 36.8827 153.78 37.2469 153.614 37.6214C153.447 37.996 153.262 38.4184 153.061 38.8929L148.832 48.1923H142.974H142.97ZM147.28 45.5121L149.049 41.4919H159.552L160.685 45.5121H147.28Z" fill="#EB0100"/>
<path d="M169.584 48.1923V29.0461H175.554V43.1587H186V48.1902H169.584V48.1923Z" fill="#EB0100"/>
<path d="M8.05318 23.8479C8.05318 24.4368 7.96907 25.0028 7.80926 25.5397H2.57986V25.5043C2.57986 24.1559 1.47384 23.0614 0.111293 23.0614C0.0755475 23.0614 0.037699 23.0614 0.00195312 23.0676V18.1026C0.609632 17.905 1.26147 17.7968 1.93643 17.7968C5.31126 17.7968 8.05318 20.5102 8.05318 23.85V23.8479Z" fill="#EB0100"/>
<path d="M16.565 23.8479C16.565 24.4201 16.5293 24.9861 16.462 25.5397H10.9277C11.037 24.9924 11.0917 24.4264 11.0917 23.8479C11.0917 18.8475 6.98726 14.7857 1.93448 14.7857C1.27213 14.7857 0.620295 14.8585 0 14.9896V9.50232C0.632911 9.41284 1.27634 9.36914 1.93448 9.36914C10.0046 9.36914 16.565 15.8615 16.565 23.8479Z" fill="#EB0100"/>
<path d="M25.0789 23.8482C25.0789 24.4142 25.0599 24.9802 25.0179 25.54H19.5214C19.5761 24.9802 19.6055 24.4204 19.6055 23.8482C19.6055 14.2012 11.6826 6.36049 1.93448 6.36049C1.28475 6.36049 0.63922 6.39587 0 6.4687V1.02512C0.63922 0.971015 1.28264 0.946045 1.93448 0.946045C14.7168 0.946045 25.0768 11.2006 25.0768 23.8482H25.0789Z" fill="#EB0100"/>
<path d="M68.9473 60.9336V52.2563H70.8271V60.9336H68.9473ZM69.7232 57.5626V55.9645H75.1839V57.5626H69.7232ZM69.8241 53.9294V52.2563H75.7116V53.9294H69.8241Z" fill="white"/>
<path d="M78.7041 60.9335V59.2854H80.6575V53.9064H78.7041V52.2583H84.4907V53.9064H82.5373V59.2854H84.4907V60.9335H78.7041Z" fill="white"/>
<path d="M87.9728 60.9336V52.2563H92.4074C93.0929 52.2563 93.669 52.3417 94.1358 52.5102C94.6026 52.6788 94.9559 52.9264 95.1935 53.2468C95.4311 53.5673 95.5509 53.9543 95.5509 54.3997C95.5509 54.8866 95.4121 55.2965 95.1367 55.6274C94.8612 55.9582 94.4512 56.1934 93.9087 56.3349L93.9466 56.0872C94.3314 56.1705 94.6783 56.3078 94.9916 56.5034C95.3049 56.6969 95.553 56.9466 95.736 57.2525C95.9189 57.5584 96.0114 57.9184 96.0114 58.3304C96.0114 58.809 95.9189 59.2169 95.736 59.5519C95.553 59.8869 95.2986 60.1533 94.979 60.351C94.6573 60.5487 94.2956 60.6964 93.8961 60.7921C93.4945 60.8878 93.0782 60.9336 92.6429 60.9336H87.9707H87.9728ZM89.7769 55.7397H92.3695C92.6198 55.7397 92.8469 55.7002 93.0529 55.6211C93.2569 55.5421 93.4146 55.4339 93.5218 55.2924C93.6312 55.1529 93.6837 54.9823 93.6837 54.7846C93.6837 54.4704 93.5534 54.2394 93.2947 54.0917C93.0361 53.9439 92.6892 53.869 92.256 53.869H89.7769V55.7397ZM89.7769 59.323H92.645C92.9457 59.323 93.2085 59.2835 93.4335 59.2044C93.6585 59.1253 93.8351 59.0067 93.9592 58.8444C94.0832 58.6821 94.1463 58.4865 94.1463 58.2555C94.1463 58.0079 94.0685 57.8081 93.915 57.6541C93.7594 57.5022 93.5639 57.3899 93.3263 57.3191C93.0887 57.2484 92.8406 57.213 92.5819 57.213H89.7769V59.3209V59.323Z" fill="white"/>
<path d="M98.8712 60.9336V52.2563H105.772V53.8919H100.711V59.296H105.858V60.9315H98.8691L98.8712 60.9336ZM99.8217 57.3025V55.7168H105.171V57.3025H99.8217Z" fill="white"/>
<path d="M108.991 60.9336V52.2563H113.55C114.143 52.2563 114.671 52.375 115.135 52.6101C115.6 52.8452 115.96 53.1699 116.218 53.5839C116.477 53.998 116.607 54.4725 116.607 55.0094C116.607 55.5462 116.469 56.0311 116.193 56.4597C115.918 56.8905 115.545 57.2297 115.079 57.4835C114.612 57.7353 114.088 57.8622 113.512 57.8622H110.806V60.9357H108.989L108.991 60.9336ZM110.808 56.3474H113.35C113.609 56.3474 113.838 56.2912 114.04 56.1809C114.242 56.0706 114.402 55.9187 114.521 55.7293C114.643 55.54 114.702 55.3236 114.702 55.0843C114.702 54.845 114.637 54.6223 114.509 54.4392C114.378 54.2582 114.204 54.1167 113.983 54.0168C113.762 53.9169 113.514 53.869 113.239 53.869H110.808V56.3474ZM114.854 60.9336L112.198 57.0174L114.151 56.7073L117.057 60.9461L114.854 60.9336Z" fill="white"/>
</svg>
